<svg width="361" height="78" viewBox="0 0 361 78" fill="none" xmlns="http://www.w3.org/2000/svg">
<path d="M116.524 60V55.2383L120.741 54.422V25.9881L116.524 25.1718V20.3829H120.741H132.496L143.298 48.0006H143.461L153.91 20.3829H169.909V25.1718L165.664 25.9881V54.422L169.909 55.2383V60H153.501V55.2383L157.937 54.422V46.8306L158.073 28.9539L157.909 28.9267L146.073 59.4558H140.06L127.952 29.1716L127.788 29.1988L128.251 46.0143V54.422L132.931 55.2383V60H116.524ZM186.969 60.5714C184.067 60.5714 181.573 59.9365 179.487 58.6667C177.401 57.397 175.804 55.6374 174.698 53.3881C173.591 51.1206 173.038 48.5176 173.038 45.5789V45.0075C173.038 42.0871 173.591 39.5021 174.698 37.2528C175.804 34.9854 177.391 33.2167 179.459 31.947C181.545 30.659 184.031 30.0151 186.915 30.0151C189.835 30.0151 192.33 30.659 194.397 31.947C196.465 33.2167 198.053 34.9763 199.159 37.2256C200.266 39.4749 200.819 42.0689 200.819 45.0075V45.5789C200.819 48.5176 200.266 51.1206 199.159 53.3881C198.053 55.6374 196.465 57.397 194.397 58.6667C192.33 59.9365 189.853 60.5714 186.969 60.5714ZM186.969 54.4765C188.348 54.4765 189.473 54.1046 190.343 53.3609C191.214 52.6171 191.858 51.5832 192.275 50.259C192.692 48.9166 192.901 47.3566 192.901 45.5789V45.0075C192.901 43.2661 192.692 41.7333 192.275 40.4091C191.858 39.0668 191.205 38.0238 190.316 37.28C189.445 36.5182 188.312 36.1372 186.915 36.1372C185.554 36.1372 184.43 36.5182 183.541 37.28C182.652 38.0238 181.999 39.0668 181.582 40.4091C181.183 41.7333 180.983 43.2661 180.983 45.0075V45.5789C180.983 47.3566 181.183 48.9166 181.582 50.259C181.999 51.6013 182.652 52.6444 183.541 53.3881C184.43 54.1137 185.572 54.4765 186.969 54.4765ZM203.404 60V55.2383L207.24 54.422V23.1583L202.996 22.342V17.5531H215.186V54.422L219.022 55.2383V60H203.404ZM221.389 60V55.2383L225.226 54.422V36.1644L220.981 35.3482V30.5593H233.171V54.422L236.98 55.2383V60H221.389ZM224.954 24.3283V17.5531H233.171V24.3283H224.954ZM239.348 60V55.2383L243.157 54.422V36.1644L238.939 35.3482V30.5593H250.558L250.912 34.7768C251.891 33.2712 253.097 32.1012 254.531 31.2667C255.982 30.4323 257.632 30.0151 259.483 30.0151C262.403 30.0151 264.689 30.9493 266.339 32.8177C267.99 34.6861 268.816 37.6156 268.816 41.6064V54.422L272.625 55.2383V60H257.442V55.2383L260.843 54.422V41.6336C260.843 39.6563 260.453 38.2596 259.673 37.4433C258.893 36.6089 257.732 36.1917 256.19 36.1917C255.047 36.1917 254.05 36.4365 253.197 36.9263C252.363 37.3979 251.664 38.0782 251.102 38.967V54.422L254.313 55.2383V60H239.348ZM288.298 60V55.2383L291.127 54.8302L303.725 20.3829H311.861L324.377 54.8302L327.207 55.2383V60H313.711V55.2383L316.459 54.7486L314.718 49.3067H300.787L299.045 54.7486L301.793 55.2383V60H288.298ZM302.664 43.4566H312.841L308.215 29.879L307.834 28.6818H307.671L307.263 29.9607L302.664 43.4566ZM329.847 60V55.2383L334.064 54.422V25.9881L329.847 25.1718V20.3829H346.227V25.1718L342.009 25.9881V54.422L346.227 55.2383V60H329.847Z" fill="white"/>
<path fill-rule="evenodd" clip-rule="evenodd" d="M17.0562 30.2667V30.2555C17.3803 30.9283 17.6878 31.5804 17.977 32.2074L36.5403 64.3601L36.5611 64.3959C36.5759 64.4212 36.5908 64.4464 36.6058 64.4716L36.6259 64.5065C38.8877 68.4241 42.6131 71.2827 46.9826 72.4535C51.352 73.6243 56.0076 73.0113 59.9252 70.7495L51.397 55.9784L42.8689 41.2073L42.8681 41.2077L26.4743 12.8128C26.4226 12.7191 26.3699 12.6258 26.3162 12.533C24.0544 8.61541 20.329 5.75681 15.9596 4.58602C12.617 3.69038 9.04362 3.82684 5.8213 4.95787C2.43821 6.08937 0 9.28368 0 13.0475V55.2618C0 55.3242 0.00067006 55.3865 0.00200338 55.4485C0.0051817 59.9634 1.80182 64.2926 4.99766 67.4853C8.19632 70.6808 12.5346 72.476 17.0582 72.476V55.4365L17.0582 38.3971H17.0562V35.5188C15.6717 33.2786 14.0277 30.3715 12.3501 27.1489C8.44246 19.6424 5.83249 13.2667 6.5206 12.9085C7.2087 12.5503 10.9343 18.3452 14.842 25.8517C15.6398 27.3844 16.3836 28.8699 17.0562 30.2667ZM28.0952 6.29234C32.0127 4.03054 36.6683 3.41762 41.0378 4.58842C45.4072 5.75921 49.1326 8.61781 51.3944 12.5354C51.4619 12.6523 51.528 12.7699 51.5926 12.8881L67.9436 41.2089L67.9455 41.2078L76.4736 55.979L85.0017 70.7501C81.0842 73.0119 76.4286 73.6248 72.0591 72.454C67.6993 71.2858 63.9807 68.4372 61.7174 64.5329C61.6834 64.4769 61.6499 64.4203 61.6169 64.3633L36.7014 21.2084C36.6531 21.1247 36.6064 21.0406 36.5612 20.956L28.0952 6.29234Z" fill="url(#paint0_linear_1640_1143)"/>
<defs>
<linearGradient id="paint0_linear_1640_1143" x1="3.22966e-07" y1="38.5404" x2="85.0017" y2="38.5404" gradientUnits="userSpaceOnUse">
<stop offset="0.197917" stop-color="#E4FF1A"/>
<stop offset="0.822917" stop-color="#21F4F0"/>
</linearGradient>
</defs>
</svg>
